# xmcd CD database file
#
# Track frame offsets:
#	150
#	13832
#	27155
#	38185
#	51060
#	65145
#	75917
#	87402
#	101570
#	115657
#	130430
#	141537
#	152215
#	164530
#	175990
#	190472
#	198520
#	210580
#	222102
#	235395
#	244845
#	259130
#	271470
#	280800
#
# Disc length: 3894 seconds
#
# Revision: 0
# Processed by: cddbd v1.5.2PL0 Copyright (c) Steve Scherf et al.
# Submitted via: CDex 1.51
#
DISCID=6a0f3418
DTITLE=Nellie Lutcher - Real Gone/Our New Nellie
DYEAR=2000
DGENRE=Jazz
TTITLE0=He's A Real Gone Guy
TTITLE1=Fine Brown Frame
TTITLE2=Hurry On Down
TTITLE3=Come and Get it, Honey
TTITLE4=My Little Boy
TTITLE5=Alexander's Ragtime Band
TTITLE6=Do You, Or Don't You Love Me
TTITLE7=Let Me Love You Tonight
TTITLE8=The Lady's In Love With You
TTITLE9=My Mother's Eyes
TTITLE10=That's A Plenty
TTITLE11=So Nice To See You, Baby
TTITLE12=Have You Ever Been Lonely
TTITLE13=You Made Me Love You
TTITLE14=(All of a Sudden) My Heart Sings
TTITLE15=This Can't Be Love
TTITLE16=Someone To Watch Over Me
TTITLE17=Blue Skies
TTITLE18=Rose Colored Glasses
TTITLE19=It Had To Be You
TTITLE20=Nearness of You
TTITLE21=Sunny Side of the Street
TTITLE22=Ole Buttermilk Sky
TTITLE23=Three Little Words
EXTD=YEAR: 2000
EXTT0=
EXTT1=
EXTT2=
EXTT3=
EXTT4=
EXTT5=
EXTT6=
EXTT7=
EXTT8=
EXTT9=
EXTT10=
EXTT11=
EXTT12=
EXTT13=
EXTT14=
EXTT15=
EXTT16=
EXTT17=
EXTT18=
EXTT19=
EXTT20=
EXTT21=
EXTT22=
EXTT23=
PLAYORDER=
